<?xml version="1.0" encoding="UTF-8" standalone="no"?>
<!DOCTYPE svg PUBLIC "-//W3C//DTD SVG 1.1//EN"
 "http://www.w3.org/Graphics/SVG/1.1/DTD/svg11.dtd">
<!-- Generated by graphviz version 2.50.0 (0)
 -->
<!-- Pages: 1 -->
<svg width="206pt" height="131pt"
 viewBox="0.00 0.00 205.69 131.00" xmlns="http://www.w3.org/2000/svg" xmlns:xlink="http://www.w3.org/1999/xlink">
<g id="graph0" class="graph" transform="scale(1 1) rotate(0) translate(4 127)">
<polygon fill="white" stroke="transparent" points="-4,4 -4,-127 201.69,-127 201.69,4 -4,4"/>
<!-- 2 -->
<g id="node1" class="node">
<title>2</title>
<ellipse fill="none" stroke="black" cx="98.85" cy="-105" rx="44.69" ry="18"/>
<text text-anchor="middle" x="98.85" y="-101.3" font-family="Times,serif" font-size="14.00">Clone 1</text>
</g>
<!-- 1 -->
<g id="node2" class="node">
<title>1</title>
<ellipse fill="none" stroke="black" cx="44.85" cy="-18" rx="44.69" ry="18"/>
<text text-anchor="middle" x="44.85" y="-14.3" font-family="Times,serif" font-size="14.00">Clone 3</text>
</g>
<!-- 2&#45;&gt;1 -->
<g id="edge1" class="edge">
<title>2&#45;&gt;1</title>
<path fill="none" stroke="black" d="M88.18,-87.21C80.41,-74.98 69.76,-58.21 60.96,-44.36"/>
<polygon fill="black" stroke="black" points="63.81,-42.32 55.49,-35.76 57.9,-46.08 63.81,-42.32"/>
<text text-anchor="middle" x="94.35" y="-57.8" font-family="Times,serif" font-size="14.00"> 1/13</text>
</g>
<!-- 0 -->
<g id="node3" class="node">
<title>0</title>
<ellipse fill="none" stroke="black" cx="152.85" cy="-18" rx="44.69" ry="18"/>
<text text-anchor="middle" x="152.85" y="-14.3" font-family="Times,serif" font-size="14.00">Clone 2</text>
</g>
<!-- 2&#45;&gt;0 -->
<g id="edge2" class="edge">
<title>2&#45;&gt;0</title>
<path fill="none" stroke="black" d="M109.51,-87.21C117.28,-74.98 127.93,-58.21 136.73,-44.36"/>
<polygon fill="black" stroke="black" points="139.79,-46.08 142.2,-35.76 133.88,-42.32 139.79,-46.08"/>
<text text-anchor="middle" x="147.35" y="-57.8" font-family="Times,serif" font-size="14.00"> 0/11</text>
</g>
</g>
</svg>
