<?xml version="1.0" encoding="UTF-8" standalone="no"?>
<!DOCTYPE svg PUBLIC "-//W3C//DTD SVG 1.1//EN"
 "http://www.w3.org/Graphics/SVG/1.1/DTD/svg11.dtd">
<!-- Generated by graphviz version 2.50.0 (20220117.2223)
 -->
<!-- Pages: 1 -->
<svg width="192pt" height="131pt"
 viewBox="0.00 0.00 192.19 131.00" xmlns="http://www.w3.org/2000/svg" xmlns:xlink="http://www.w3.org/1999/xlink">
<g id="graph0" class="graph" transform="scale(1 1) rotate(0) translate(4 127)">
<polygon fill="white" stroke="transparent" points="-4,4 -4,-127 188.19,-127 188.19,4 -4,4"/>
<!-- 2 -->
<g id="node1" class="node">
<title>2</title>
<ellipse fill="none" stroke="black" cx="91.6" cy="-105" rx="41.69" ry="18"/>
<text text-anchor="middle" x="91.6" y="-101.3" font-family="Times,serif" font-size="14.00">Clone 5</text>
</g>
<!-- 1 -->
<g id="node2" class="node">
<title>1</title>
<ellipse fill="none" stroke="black" cx="41.6" cy="-18" rx="41.69" ry="18"/>
<text text-anchor="middle" x="41.6" y="-14.3" font-family="Times,serif" font-size="14.00">Clone 1</text>
</g>
<!-- 2&#45;&gt;1 -->
<g id="edge1" class="edge">
<title>2&#45;&gt;1</title>
<path fill="none" stroke="black" d="M81.72,-87.21C74.6,-75.1 64.85,-58.53 56.75,-44.76"/>
<polygon fill="black" stroke="black" points="59.54,-42.6 51.45,-35.76 53.51,-46.15 59.54,-42.6"/>
<text text-anchor="middle" x="86.6" y="-57.8" font-family="Times,serif" font-size="14.00"> 0/24</text>
</g>
<!-- 0 -->
<g id="node3" class="node">
<title>0</title>
<ellipse fill="none" stroke="black" cx="142.6" cy="-18" rx="41.69" ry="18"/>
<text text-anchor="middle" x="142.6" y="-14.3" font-family="Times,serif" font-size="14.00">Clone 3</text>
</g>
<!-- 2&#45;&gt;0 -->
<g id="edge2" class="edge">
<title>2&#45;&gt;0</title>
<path fill="none" stroke="black" d="M101.67,-87.21C109.01,-74.98 119.07,-58.21 127.38,-44.36"/>
<polygon fill="black" stroke="black" points="130.4,-46.13 132.54,-35.76 124.4,-42.53 130.4,-46.13"/>
<text text-anchor="middle" x="133.6" y="-57.8" font-family="Times,serif" font-size="14.00"> 1/0</text>
</g>
</g>
</svg>
