<?xml version="1.0" encoding="UTF-8" standalone="no"?>
<!DOCTYPE svg PUBLIC "-//W3C//DTD SVG 1.1//EN"
 "http://www.w3.org/Graphics/SVG/1.1/DTD/svg11.dtd">
<!-- Generated by graphviz version 2.50.0 (20220117.2223)
 -->
<!-- Pages: 1 -->
<svg width="242pt" height="218pt"
 viewBox="0.00 0.00 242.19 218.00" xmlns="http://www.w3.org/2000/svg" xmlns:xlink="http://www.w3.org/1999/xlink">
<g id="graph0" class="graph" transform="scale(1 1) rotate(0) translate(4 214)">
<polygon fill="white" stroke="transparent" points="-4,4 -4,-214 238.19,-214 238.19,4 -4,4"/>
<!-- 4 -->
<g id="node1" class="node">
<title>4</title>
<ellipse fill="none" stroke="black" cx="163.6" cy="-192" rx="41.69" ry="18"/>
<text text-anchor="middle" x="163.6" y="-188.3" font-family="Times,serif" font-size="14.00">Clone 5</text>
</g>
<!-- 3 -->
<g id="node2" class="node">
<title>3</title>
<ellipse fill="none" stroke="black" cx="91.6" cy="-105" rx="41.69" ry="18"/>
<text text-anchor="middle" x="91.6" y="-101.3" font-family="Times,serif" font-size="14.00">Clone 1</text>
</g>
<!-- 4&#45;&gt;3 -->
<g id="edge1" class="edge">
<title>4&#45;&gt;3</title>
<path fill="none" stroke="black" d="M149.71,-174.61C138.99,-161.95 123.98,-144.24 111.91,-129.98"/>
<polygon fill="black" stroke="black" points="114.33,-127.42 105.19,-122.05 108.98,-131.94 114.33,-127.42"/>
<text text-anchor="middle" x="149.6" y="-144.8" font-family="Times,serif" font-size="14.00"> 0/24</text>
</g>
<!-- 0 -->
<g id="node3" class="node">
<title>0</title>
<ellipse fill="none" stroke="black" cx="192.6" cy="-105" rx="41.69" ry="18"/>
<text text-anchor="middle" x="192.6" y="-101.3" font-family="Times,serif" font-size="14.00">Clone 3</text>
</g>
<!-- 4&#45;&gt;0 -->
<g id="edge2" class="edge">
<title>4&#45;&gt;0</title>
<path fill="none" stroke="black" d="M169.46,-173.8C173.5,-161.97 178.94,-146.03 183.53,-132.58"/>
<polygon fill="black" stroke="black" points="186.92,-133.48 186.84,-122.89 180.29,-131.22 186.92,-133.48"/>
<text text-anchor="middle" x="193.6" y="-144.8" font-family="Times,serif" font-size="14.00"> 1/0</text>
</g>
<!-- 2 -->
<g id="node4" class="node">
<title>2</title>
<ellipse fill="none" stroke="black" cx="41.6" cy="-18" rx="41.69" ry="18"/>
<text text-anchor="middle" x="41.6" y="-14.3" font-family="Times,serif" font-size="14.00">Clone 2</text>
</g>
<!-- 3&#45;&gt;2 -->
<g id="edge3" class="edge">
<title>3&#45;&gt;2</title>
<path fill="none" stroke="black" d="M81.72,-87.21C74.6,-75.1 64.85,-58.53 56.75,-44.76"/>
<polygon fill="black" stroke="black" points="59.54,-42.6 51.45,-35.76 53.51,-46.15 59.54,-42.6"/>
<text text-anchor="middle" x="83.6" y="-57.8" font-family="Times,serif" font-size="14.00"> 0/0</text>
</g>
<!-- 1 -->
<g id="node5" class="node">
<title>1</title>
<ellipse fill="none" stroke="black" cx="142.6" cy="-18" rx="41.69" ry="18"/>
<text text-anchor="middle" x="142.6" y="-14.3" font-family="Times,serif" font-size="14.00">Clone 4</text>
</g>
<!-- 3&#45;&gt;1 -->
<g id="edge4" class="edge">
<title>3&#45;&gt;1</title>
<path fill="none" stroke="black" d="M101.67,-87.21C109.01,-74.98 119.07,-58.21 127.38,-44.36"/>
<polygon fill="black" stroke="black" points="130.4,-46.13 132.54,-35.76 124.4,-42.53 130.4,-46.13"/>
<text text-anchor="middle" x="134.6" y="-57.8" font-family="Times,serif" font-size="14.00"> 0/0</text>
</g>
</g>
</svg>
